#N canvas 692 41 273 228 10;
#N canvas 0 23 810 225 OSCreceiver 0;
#X obj 6 36 mrpeach/unpackOSC;
#X obj 6 14 mrpeach/udpreceive 5432;
#X obj 215 102 bng 15 250 50 0 empty empty Data 17 7 0 10 -262144 -1
-1;
#X obj 106 103 s orientation-\$0;
#X obj 6 80 route /myo1/mav /myo1/orientation;
#X obj 6 102 s mav-\$0;
#X obj 6 58 mrpeach/pipelist;
#X connect 0 0 6 0;
#X connect 0 1 6 1;
#X connect 1 0 0 0;
#X connect 4 0 5 0;
#X connect 4 1 3 0;
#X connect 4 2 2 0;
#X connect 6 0 4 0;
#X coords 0 -1 1 1 60 40 1 210 80;
#X restore 15 15 pd OSCreceiver;
#N canvas 321 259 215 219 modulation 0;
#X obj 9 154 *~;
#X msg 24 106 \$1 20;
#X obj 24 128 vline~;
#X obj 24 82 max 0;
#X obj 24 60 - 0.05;
#X obj 9 179 outlet~ audioModulation-\$0;
#X obj 9 9 inlet~ audioModulation;
#X obj 24 38 r mav-\$0;
#X connect 0 0 5 0;
#X connect 1 0 2 0;
#X connect 2 0 0 1;
#X connect 3 0 1 0;
#X connect 4 0 3 0;
#X connect 6 0 0 0;
#X connect 7 0 4 0;
#X restore 15 92 pd modulation;
#N canvas 807 381 291 219 soundfile 0;
#X msg 58 49 1;
#X obj 97 139 t b b;
#X obj 120 102 loadbang;
#X msg 10 22 open paper.wav;
#X obj 10 146 outlet~;
#X obj 10 112 readsf~ 1 1e+06;
#X obj 181 101 bng 15 250 50 0 empty empty empty 17 7 0 10 -262144
-1 -1;
#X connect 0 0 5 0;
#X connect 1 0 0 0;
#X connect 1 1 3 0;
#X connect 2 0 1 0;
#X connect 3 0 5 0;
#X connect 5 0 4 0;
#X connect 5 1 1 0;
#X connect 6 0 1 0;
#X restore 15 63 pd soundfile;
#X obj 15 177 dac~ 1 2;
#N canvas 0 22 450 300 gain 0;
#X obj 75 34 inlet~;
#X obj 75 136 *~;
#X msg 92 87 \$1 20;
#X obj 92 109 vline~;
#X obj 75 188 outlet~;
#X obj 126 188 outlet~;
#X obj 90 62 inlet;
#X connect 0 0 1 0;
#X connect 1 0 4 0;
#X connect 1 0 5 0;
#X connect 2 0 3 0;
#X connect 3 0 1 1;
#X connect 6 0 2 0;
#X restore 15 153 pd gain;
#X obj 113 20 vsl 15 128 0 3 0 0 empty empty I 0 -9 0 10 -262144 -1
-1 12700 1;
#X connect 1 0 4 0;
#X connect 2 0 1 0;
#X connect 4 0 3 0;
#X connect 4 1 3 1;
#X connect 5 0 4 1;
