#N canvas 142 206 204 167 10;
#X obj 6 104 *~;
#X msg 21 56 \$1 20;
#X obj 21 78 vline~;
#X obj 6 4 receive~ audioModulationIn;
#X obj 6 135 throw~ audioModulationOut;
#X obj 21 28 r mav;
#X connect 0 0 4 0;
#X connect 1 0 2 0;
#X connect 2 0 0 1;
#X connect 3 0 0 0;
#X connect 5 0 1 0;
